# xmcd
#
# Track frame offsets:
#	150
#	18048
#	35169
#	49113
#	74139
#	89220
#	104986
#	119422
#	132129
#	150950
#	173079
#	192616
#
# Disc length: 2838 seconds
#
# Revision: 4264623796
# Processed by: cddbd v1.5.2PL0 Copyright (c) Steve Scherf et al.
# Submitted via: EZCDAudioConverter 8.1.0.1
#
DISCID=b10b140c
DTITLE=Robert Earl Keen - Ready For Confetti
DYEAR=2011
DGENRE=Country
TTITLE0=Black Baldy Stallion
TTITLE1=Ready For Confetti
TTITLE2=I Gotta Go
TTITLE3=Lay Down My Brother
TTITLE4=The Road Goes On And On
TTITLE5=Show The World
TTITLE6=Waves On The Ocean
TTITLE7=Top Down
TTITLE8=Play A Train Song
TTITLE9=Who Do Man
TTITLE10=Paint The Town Beige
TTITLE11=Soul Of Man
EXTD=
EXTT0=
EXTT1=
EXTT2=
EXTT3=
EXTT4=
EXTT5=
EXTT6=
EXTT7=
EXTT8=
EXTT9=
EXTT10=
EXTT11=
PLAYORDER=
